<?xml version="1.0" encoding="UTF-8" standalone="no"?>
<svg
   xmlns:dc="http://purl.org/dc/elements/1.1/"
   xmlns:cc="http://creativecommons.org/ns#"
   xmlns:rdf="http://www.w3.org/1999/02/22-rdf-syntax-ns#"
   xmlns:svg="http://www.w3.org/2000/svg"
   xmlns="http://www.w3.org/2000/svg"
   xmlns:sodipodi="http://sodipodi.sourceforge.net/DTD/sodipodi-0.dtd"
   xmlns:inkscape="http://www.inkscape.org/namespaces/inkscape"
   version="1.1"
   x="0px"
   y="0px"
   viewBox="0 0 341.52113 97.930393"
   enable-background="new 0 0 100 100"
   xml:space="preserve"
   id="svg3118"
   inkscape:version="0.48.4 r9939"
   width="100%"
   height="100%"
   sodipodi:docname="death-loops.svg"><metadata
     id="metadata3130"><rdf:RDF><cc:Work
         rdf:about=""><dc:format>image/svg+xml</dc:format><dc:type
           rdf:resource="http://purl.org/dc/dcmitype/StillImage" /></cc:Work></rdf:RDF></metadata><defs
     id="defs3128" /><sodipodi:namedview
     pagecolor="#ffffff"
     bordercolor="#666666"
     borderopacity="1"
     objecttolerance="10"
     gridtolerance="10"
     guidetolerance="10"
     inkscape:pageopacity="0"
     inkscape:pageshadow="2"
     inkscape:window-width="1372"
     inkscape:window-height="1102"
     id="namedview3126"
     showgrid="false"
     inkscape:zoom="2.6700352"
     inkscape:cx="169.204"
     inkscape:cy="82.632305"
     inkscape:window-x="486"
     inkscape:window-y="140"
     inkscape:window-maximized="0"
     inkscape:current-layer="svg3118"
     fit-margin-top="0"
     fit-margin-left="0"
     fit-margin-right="0"
     fit-margin-bottom="0" /><path
     d="m 174.71187,38.536621 c 1.423,6.367 -2.546,7.866 -1.648,11.46 1.574,6.292 0.449,8.091 -3.145,17.901 l -2.248,-0.3 -2.321,0.3 c -3.596,-9.811 -4.719,-11.609 -3.146,-17.901 0.899,-3.594 -3.071,-5.093 -1.647,-11.46 2.252,6.614 5.28,17.457 6.964,20.298 l -0.074,-22.469003 0.524,0 -0.147,22.469003 c 2.07,-3.283 4.622,-13.644 6.888,-20.298 z m -5.767,24.642 c 0.6,1.349 -1.273,3.297 -0.524,3.447 0.973,0.073 1.723,-1.274 0.973,-3.747 -0.899,-1.721 -1.048,-1.347 -0.449,0.3 z m -2.622,0 c 0.6,-1.647 0.45,-2.021 -0.45,-0.3 -0.749,2.473 0,3.82 0.975,3.747 0.749,-0.15 -1.125,-2.098 -0.525,-3.447 z m 15.43001,-25.464003 c -4.64501,0 0.897,-2.621 -0.6,-5.619 -0.824,-1.647 0,-4.344 0.523,-6.815 0.376,-1.872 0.824,-2.771 1.573,-2.771 1.724,0 1.947,1.948 1.947,5.093 0.001,3.146 -1.721,10.112 -3.443,10.112 z m -28.23801,0 c -1.722,0 -3.445,-6.966 -3.445,-10.113 0,-3.145 0.225,-5.093 1.947,-5.093 0.749,0 1.198,0.899 1.573,2.771 0.524,2.471 1.348,5.168 0.524,6.815 -1.498,2.999 4.045,5.62 -0.599,5.62 z m 30.70901,-17.152 c -2.547,0 -2.171,-4.494 -1.947,-5.094 l 2.397,-4.868 -6.51601,-2.9959996 c 0.148,0.075 -5.245,5.3179996 -10.487,5.3179996 -5.317,0 -10.71,-5.2429996 -10.56,-5.3179996 l -6.517,2.9959996 2.397,4.868 c 0.225,0.6 0.599,5.094 -1.947,5.094 -1.873,0 -1.947,3.445 -1.947,7.189 0,3.97 1.947,10.412 3.745,11.760003 l 0.749,0.899 1.723,6.44 0.823,5.244 c 0.449,2.921 2.097,-2.622 5.243,9.66 l 3.295,7.342 c 0.075,0.223 0.3,0.373 0.6,0.373 l 1.798,0 0.524,-0.6 0.074,0 0.525,0.6 1.797,0 c 0.3,0 0.523,-0.15 0.6,-0.373 l 3.295,-7.342 c 3.146,-12.282 4.794,-6.739 5.243,-9.66 l 0.82401,-5.244 1.722,-6.44 0.75,-0.899 c 1.797,-1.348003 3.744,-7.790003 3.744,-11.760003 0,-3.744 -0.074,-7.189 -1.947,-7.189 z m 24.718,-14.1559996 c -5.543,-3.446 -7.79,3.8939996 -12.36,-0.674 -1.272,-1.273 -5.841,0.974 -6.439,1.797 2.021,7.7899996 13.031,4.4939996 16.328,2.097 0.523,-0.375 -1.124,-0.524 -1.724,-0.749 -0.899,-0.375 -0.45,-0.3 -0.225,-0.225 0.449,0.225 1.049,0.299 2.472,0.449 1.948,0.225 10.41,2.6219996 1.948,-2.695 z m -70.25601,-0.674 c -4.569,4.5679996 -6.816,-2.771 -12.359,0.674 -8.463,5.3169996 0,2.92 1.948,2.696 1.423,-0.15 2.022,-0.224 2.472,-0.449 0.225,-0.075 0.673,-0.15 -0.225,0.225 -0.599,0.224 -2.247,0.374 -1.722,0.749 3.295,2.3959996 14.306,5.6929996 16.328,-2.097 -0.6,-0.824 -5.169,-3.071 -6.442,-1.798 z m 48.38501,3.296 c 3.744,-3.071 7.04,-5.992 10.41,-3.595 -3.444,-2.472 -9.512,-9.587 -16.627,-2.097 -0.075,0 -0.15,0 -0.225,0.15 l -0.749,0.749 c -0.149,0 -0.149,0.075 -0.225,0.15 l -0.45001,0.599 c -0.149,-0.075 -0.3,0 -0.3,0.075 l -0.299,0.524 c -0.15,-0.075 -0.225,0 -0.3,0.075 l -0.524,0.974 c -0.149,0.224 0,0.449 0.076,0.449 l 6.06601,2.846 1.272,0.5989996 0.674,0.3 c 0.076,0.15 0.3,0 0.376,-0.075 l 0.523,-0.9739996 c 0.075,-0.15 0.075,-0.225 0.075,-0.3 l 0.149,-0.299 z m -37.67401,1.7969996 0.674,-0.3 1.273,-0.5989996 6.067,-2.846 c 0.075,0 0.224,-0.225 0.075,-0.449 l -0.524,-0.974 c -0.075,-0.075 -0.15,-0.15 -0.3,-0.075 l -0.299,-0.524 c 0,-0.075 -0.15,-0.15 -0.3,-0.075 l -0.45,-0.599 c -0.075,-0.075 -0.075,-0.15 -0.224,-0.15 l -0.75,-0.749 c -0.075,-0.15 -0.149,-0.15 -0.224,-0.15 -7.115,-7.49 -13.183,-0.375 -16.628,2.097 3.371,-2.397 6.666,0.524 10.411,3.595 l 0.075,0.15 0.15,0.299 c 0,0.075 0,0.15 0.075,0.3 l 0.524,0.9739996 c 0.075,0.075 0.3,0.225 0.375,0.075 z"
     id="path3120"
     inkscape:connector-curvature="0"
     sodipodi:nodetypes="ccccccccccccccccccccsccscssssccsscccscccssccccccsccccsccccccsscccccccccccccccccccccccccccccccccccccccccccccccccccccccc" /><path
     style="fill:#010101"
     inkscape:connector-curvature="0"
     d="m 187.31647,63.205771 c -8.19809,0 -15.7162,7.6988 -19.5136,12.3554 -3.79814,-4.6566 -11.31552,-12.3554 -19.51361,-12.3554 -9.57353,0 -17.36156,7.78878 -17.36156,17.36231 0,9.57354 7.78803,17.36231 17.36156,17.36231 8.19809,0 15.71547,-7.6988 19.51361,-12.35613 3.79667,4.6566 11.31478,12.35613 19.5136,12.35613 9.5728,0 17.36157,-7.78877 17.36157,-17.36231 0,-9.57353 -7.78877,-17.36231 -17.36157,-17.36231 z m -39.02721,28.69553 c -6.24886,0 -11.33321,-5.08509 -11.33321,-11.33322 0,-6.2496 5.08435,-11.33395 11.33321,-11.33395 5.82259,0 12.51544,7.09699 15.78479,11.33395 -3.27009,4.23844 -9.9622,11.33322 -15.78479,11.33322 z m 39.02721,0 c -5.82406,0 -12.51912,-7.09995 -15.787,-11.33691 3.26198,-4.23769 9.94303,-11.33174 15.787,-11.33174 6.24961,0 11.33248,5.08435 11.33248,11.33395 0,6.25035 -5.08287,11.3347 -11.33248,11.3347 z"
     id="path3035" /><text
     xml:space="preserve"
     style="font-size:40px;font-style:normal;font-variant:normal;font-weight:normal;font-stretch:normal;line-height:125%;letter-spacing:0px;word-spacing:0px;fill:#000000;fill-opacity:1;stroke:none;font-family:Open Sans;-inkscape-font-specification:Open Sans"
     x="-3.9257815"
     y="45.922623"
     id="text3271"
     sodipodi:linespacing="125%"><tspan
       sodipodi:role="line"
       id="tspan3273"
       x="-3.9257815"
       y="45.922623">DEATH</tspan></text>
<text
     xml:space="preserve"
     style="font-size:40px;font-style:normal;font-variant:normal;font-weight:normal;font-stretch:normal;line-height:125%;letter-spacing:0px;word-spacing:0px;fill:#000000;fill-opacity:1;stroke:none;font-family:Open Sans;-inkscape-font-specification:Open Sans"
     x="214.29456"
     y="45.53199"
     id="text3275"
     sodipodi:linespacing="125%"><tspan
       sodipodi:role="line"
       id="tspan3277"
       x="214.29456"
       y="45.53199">LOOPS</tspan></text>
</svg>