<svg xmlns="http://www.w3.org/2000/svg" xmlns:xlink="http://www.w3.org/1999/xlink" version="1.1" x="0px" y="0px" viewBox="0 0 100 125" enable-background="new 0 0 100 100" xml:space="preserve"><path d="M57.078,55.814c1.423,6.367-2.546,7.866-1.648,11.46c1.574,6.292,0.449,8.091-3.145,17.901l-2.248-0.3l-2.321,0.3  c-3.596-9.811-4.719-11.609-3.146-17.901c0.899-3.594-3.071-5.093-1.647-11.46c2.252,6.614,5.28,17.457,6.964,20.298l-0.074-22.469  h0.524l-0.147,22.469C52.26,72.829,54.812,62.468,57.078,55.814z M44.045,52.145l6.142-1.048l6.067,1.048l0.225,0.376l-6.292-1.049  l-6.366,1.049L44.045,52.145z M52.809,89.071c-0.225,0-0.374-0.075-0.374-0.15c0-0.149-0.149-0.3,0.075-0.3h0.149  c0.149,0,0.45,0.075,0.45,0.225C53.109,88.996,52.959,89.071,52.809,89.071z M47.341,88.621h0.15c0.225,0,0.075,0.15,0.075,0.3  c0,0.075-0.15,0.15-0.375,0.15c-0.15,0-0.299-0.075-0.299-0.226C46.892,88.696,47.191,88.621,47.341,88.621z M51.984,89.071H51.76  c-0.225,0-0.375-0.075-0.375-0.15c0-0.149-0.074-0.375,0.15-0.375h0.225c0.225,0,0.6,0.226,0.6,0.375  C52.359,88.996,52.209,89.071,51.984,89.071z M48.239,88.546h0.225c0.225,0,0.15,0.226,0.15,0.375c0,0.075-0.15,0.15-0.375,0.15  h-0.225c-0.224,0-0.374-0.075-0.374-0.15C47.641,88.771,48.015,88.546,48.239,88.546z M50.937,89.071h-0.45  c-0.225,0-0.375-0.075-0.375-0.15c0-0.149-0.075-0.449,0.15-0.449h0.45c0.225,0,0.599,0.3,0.599,0.449  C51.311,88.996,51.16,89.071,50.937,89.071z M49.289,88.472h0.45c0.225,0,0.15,0.3,0.15,0.449c0,0.075-0.15,0.15-0.375,0.15h-0.449  c-0.225,0-0.375-0.075-0.375-0.15C48.689,88.771,49.064,88.472,49.289,88.472z M52.733,87.272h-2.696v1.946h2.696  c0.45,0,0.749-0.298,0.749-0.747v-0.45C53.482,87.572,53.184,87.272,52.733,87.272z M46.518,88.021v0.45  c0,0.449,0.3,0.747,0.749,0.747h2.771v-1.946h-2.771C46.817,87.272,46.518,87.572,46.518,88.021z M51.311,80.456  c0.6,1.349-1.273,3.297-0.524,3.447c0.973,0.073,1.723-1.274,0.973-3.747C50.861,78.435,50.712,78.809,51.311,80.456z   M48.689,80.456c0.6-1.647,0.45-2.021-0.45-0.3c-0.749,2.473,0,3.82,0.975,3.747C49.963,83.753,48.089,81.805,48.689,80.456z   M52.584,59.561c0.225,0,0.299,0.449,0.299,0.974c0,0.523-0.074,0.973-0.299,0.973c-0.299,0-0.149-0.449-0.149-0.973  C52.435,60.01,52.285,59.561,52.584,59.561z M47.416,61.507c-0.225,0-0.3-0.449-0.3-0.973c0-0.524,0.075-0.974,0.3-0.974  c0.3,0,0.15,0.449,0.15,0.974C47.566,61.058,47.716,61.507,47.416,61.507z M56.479,42.858c-0.374,0-0.6-0.374-0.6-0.824  s0.226-0.824,0.6-0.824c0.449,0,0.749,0.374,0.749,0.824S56.928,42.858,56.479,42.858z M43.521,42.858  c-0.45,0-0.749-0.374-0.749-0.824s0.299-0.824,0.749-0.824c0.375,0,0.599,0.374,0.599,0.824S43.896,42.858,43.521,42.858z   M64.119,54.992c-4.645,0,0.897-2.621-0.6-5.619c-0.824-1.647,0-4.344,0.523-6.815c0.376-1.872,0.824-2.771,1.573-2.771  c1.724,0,1.947,1.948,1.947,5.093C67.563,48.026,65.841,54.992,64.119,54.992z M35.881,54.992c-1.722,0-3.445-6.966-3.445-10.113  c0-3.145,0.225-5.093,1.947-5.093c0.749,0,1.198,0.899,1.573,2.771c0.524,2.471,1.348,5.168,0.524,6.815  C34.982,52.371,40.525,54.992,35.881,54.992z M66.59,37.84c-2.547,0-2.171-4.494-1.947-5.094l2.397-4.868l-6.516-2.996  c0.148,0.075-5.245,5.318-10.487,5.318c-5.317,0-10.71-5.243-10.56-5.318l-6.517,2.996l2.397,4.868  c0.225,0.6,0.599,5.094-1.947,5.094c-1.873,0-1.947,3.445-1.947,7.189c0,3.97,1.947,10.412,3.745,11.76l0.749,0.899l1.723,6.44  l0.823,5.244c0.449,2.921,2.097-2.622,5.243,9.66l3.295,7.342c0.075,0.223,0.3,0.373,0.6,0.373h1.798l0.524-0.6h0.074l0.525,0.6  h1.797c0.3,0,0.523-0.15,0.6-0.373l3.295-7.342c3.146-12.282,4.794-6.739,5.243-9.66l0.824-5.244l1.722-6.44l0.75-0.899  c1.797-1.348,3.744-7.79,3.744-11.76C68.537,41.285,68.463,37.84,66.59,37.84z M91.308,23.684c-5.543-3.446-7.79,3.894-12.36-0.674  c-1.272-1.273-5.841,0.974-6.439,1.797c2.021,7.79,13.031,4.494,16.328,2.097c0.523-0.375-1.124-0.524-1.724-0.749  c-0.899-0.375-0.45-0.3-0.225-0.225c0.449,0.225,1.049,0.299,2.472,0.449C91.308,26.604,99.77,29.001,91.308,23.684z M21.052,23.01  c-4.569,4.568-6.816-2.771-12.359,0.674c-8.463,5.317,0,2.92,1.948,2.696c1.423-0.15,2.022-0.224,2.472-0.449  c0.225-0.075,0.673-0.15-0.225,0.225c-0.599,0.224-2.247,0.374-1.722,0.749c3.295,2.396,14.306,5.693,16.328-2.097  C26.894,23.984,22.325,21.737,21.052,23.01z M69.437,26.306c3.744-3.071,7.04-5.992,10.41-3.595  c-3.444-2.472-9.512-9.587-16.627-2.097c-0.075,0-0.15,0-0.225,0.15l-0.749,0.749c-0.149,0-0.149,0.075-0.225,0.15l-0.45,0.599  c-0.149-0.075-0.3,0-0.3,0.075l-0.299,0.524c-0.15-0.075-0.225,0-0.3,0.075l-0.524,0.974c-0.149,0.224,0,0.449,0.076,0.449  l6.066,2.846l1.272,0.599l0.674,0.3c0.076,0.15,0.3,0,0.376-0.075l0.523-0.974c0.075-0.15,0.075-0.225,0.075-0.3l0.149-0.299  L69.437,26.306z M31.763,28.103l0.674-0.3l1.273-0.599l6.067-2.846c0.075,0,0.224-0.225,0.075-0.449l-0.524-0.974  c-0.075-0.075-0.15-0.15-0.3-0.075l-0.299-0.524c0-0.075-0.15-0.15-0.3-0.075l-0.45-0.599c-0.075-0.075-0.075-0.15-0.224-0.15  l-0.75-0.749c-0.075-0.15-0.149-0.15-0.224-0.15c-7.115-7.49-13.183-0.375-16.628,2.097c3.371-2.397,6.666,0.524,10.411,3.595  l0.075,0.15l0.15,0.299c0,0.075,0,0.15,0.075,0.3l0.524,0.974C31.463,28.103,31.688,28.253,31.763,28.103z"/><text x="0" y="115" fill="#000000" font-size="5px" font-weight="bold" font-family="'Helvetica Neue', Helvetica, Arial-Unicode, Arial, Sans-serif">Created by Jason Dilworth</text><text x="0" y="120" fill="#000000" font-size="5px" font-weight="bold" font-family="'Helvetica Neue', Helvetica, Arial-Unicode, Arial, Sans-serif">from the Noun Project</text></svg>